<mxfile host="app.diagrams.net" modified="2024-01-18T16:28:45.241Z" agent="Mozilla/5.0 (Macintosh; Intel Mac OS X 10_15_7) AppleWebKit/605.1.15 (KHTML, like Gecko) Version/16.6 Safari/605.1.15" etag="Yhj8qTaWWseHTRA83Sc5" version="22.1.18" type="github">
  <diagram name="Page-1" id="FVvnYfWqf4YLLZQFr8f9">
    <mxGraphModel dx="884" dy="1810" grid="1" gridSize="10" guides="1" tooltips="1" connect="1" arrows="1" fold="1" page="1" pageScale="1" pageWidth="850" pageHeight="1100" math="0" shadow="0">
      <root>
        <mxCell id="0" />
        <mxCell id="1" parent="0" />
        <mxCell id="DlXwDRaFY0KUQv-3GySy-3" value="App/website" style="whiteSpace=wrap;html=1;aspect=fixed;" vertex="1" parent="1">
          <mxGeometry x="50" y="80" width="130" height="130" as="geometry" />
        </mxCell>
        <mxCell id="DlXwDRaFY0KUQv-3GySy-2" value="personal data" style="shape=cylinder3;whiteSpace=wrap;html=1;boundedLbl=1;backgroundOutline=1;size=15;" vertex="1" parent="1">
          <mxGeometry x="40" y="50" width="60" height="80" as="geometry" />
        </mxCell>
        <mxCell id="DlXwDRaFY0KUQv-3GySy-4" value="LB" style="rounded=0;whiteSpace=wrap;html=1;rotation=90;" vertex="1" parent="1">
          <mxGeometry x="200" y="10" width="170" height="60" as="geometry" />
        </mxCell>
        <mxCell id="DlXwDRaFY0KUQv-3GySy-6" value="" style="swimlane;startSize=0;" vertex="1" parent="1">
          <mxGeometry x="30" y="290" width="250" height="210" as="geometry" />
        </mxCell>
        <mxCell id="DlXwDRaFY0KUQv-3GySy-7" value="Firewall" style="text;html=1;align=center;verticalAlign=middle;resizable=0;points=[];autosize=1;strokeColor=none;fillColor=none;" vertex="1" parent="DlXwDRaFY0KUQv-3GySy-6">
          <mxGeometry x="70" y="90" width="60" height="30" as="geometry" />
        </mxCell>
        <mxCell id="DlXwDRaFY0KUQv-3GySy-20" value="All incoming and vauable data comes through&amp;nbsp;" style="text;html=1;align=center;verticalAlign=middle;resizable=0;points=[];autosize=1;strokeColor=none;fillColor=none;" vertex="1" parent="DlXwDRaFY0KUQv-3GySy-6">
          <mxGeometry y="30" width="270" height="30" as="geometry" />
        </mxCell>
        <mxCell id="DlXwDRaFY0KUQv-3GySy-11" value="Phone billing system&lt;br&gt;&lt;br&gt;Key points&lt;br&gt;&lt;br&gt;&lt;ul&gt;&lt;li style=&quot;text-align: left;&quot;&gt;Personal Records&lt;br&gt;&lt;/li&gt;&lt;li style=&quot;text-align: left;&quot;&gt;scalability&lt;/li&gt;&lt;li style=&quot;text-align: left;&quot;&gt;1.5 Billion a month&lt;/li&gt;&lt;li style=&quot;text-align: left;&quot;&gt;Generate phone bills&lt;/li&gt;&lt;/ul&gt;" style="whiteSpace=wrap;html=1;aspect=fixed;" vertex="1" parent="1">
          <mxGeometry x="540" y="-60" width="270" height="270" as="geometry" />
        </mxCell>
        <mxCell id="DlXwDRaFY0KUQv-3GySy-12" value="Bill CDN" style="rounded=0;whiteSpace=wrap;html=1;" vertex="1" parent="1">
          <mxGeometry x="365" y="290" width="120" height="60" as="geometry" />
        </mxCell>
        <mxCell id="DlXwDRaFY0KUQv-3GySy-13" value="Payment Send CDN" style="rounded=0;whiteSpace=wrap;html=1;" vertex="1" parent="1">
          <mxGeometry x="350" y="80" width="120" height="60" as="geometry" />
        </mxCell>
        <mxCell id="DlXwDRaFY0KUQv-3GySy-14" value="" style="endArrow=none;dashed=1;html=1;dashPattern=1 3;strokeWidth=2;rounded=0;" edge="1" parent="1">
          <mxGeometry width="50" height="50" relative="1" as="geometry">
            <mxPoint x="190" y="140" as="sourcePoint" />
            <mxPoint x="240" y="90" as="targetPoint" />
          </mxGeometry>
        </mxCell>
        <mxCell id="DlXwDRaFY0KUQv-3GySy-17" value="" style="endArrow=classic;html=1;rounded=0;" edge="1" parent="1" target="DlXwDRaFY0KUQv-3GySy-3">
          <mxGeometry relative="1" as="geometry">
            <mxPoint x="370" y="290" as="sourcePoint" />
            <mxPoint x="470" y="290" as="targetPoint" />
            <Array as="points">
              <mxPoint x="250" y="170" />
            </Array>
          </mxGeometry>
        </mxCell>
        <mxCell id="DlXwDRaFY0KUQv-3GySy-18" value="" style="shape=message;html=1;outlineConnect=0;" vertex="1" parent="DlXwDRaFY0KUQv-3GySy-17">
          <mxGeometry width="20" height="14" relative="1" as="geometry">
            <mxPoint x="-10" y="-7" as="offset" />
          </mxGeometry>
        </mxCell>
        <mxCell id="DlXwDRaFY0KUQv-3GySy-24" value="Billing Email&amp;nbsp;" style="edgeLabel;html=1;align=center;verticalAlign=middle;resizable=0;points=[];" vertex="1" connectable="0" parent="DlXwDRaFY0KUQv-3GySy-17">
          <mxGeometry x="-0.4599" y="-3" relative="1" as="geometry">
            <mxPoint as="offset" />
          </mxGeometry>
        </mxCell>
        <mxCell id="DlXwDRaFY0KUQv-3GySy-1" value="incoming calls / payments" style="shape=cylinder3;whiteSpace=wrap;html=1;boundedLbl=1;backgroundOutline=1;size=15;" vertex="1" parent="1">
          <mxGeometry x="390" y="20" width="60" height="80" as="geometry" />
        </mxCell>
        <mxCell id="DlXwDRaFY0KUQv-3GySy-5" value="S3" style="shape=cylinder3;whiteSpace=wrap;html=1;boundedLbl=1;backgroundOutline=1;size=15;" vertex="1" parent="1">
          <mxGeometry x="110" y="30" width="60" height="80" as="geometry" />
        </mxCell>
        <mxCell id="DlXwDRaFY0KUQv-3GySy-8" value="S3" style="shape=cylinder3;whiteSpace=wrap;html=1;boundedLbl=1;backgroundOutline=1;size=15;" vertex="1" parent="1">
          <mxGeometry x="350" y="350" width="60" height="80" as="geometry" />
        </mxCell>
        <mxCell id="DlXwDRaFY0KUQv-3GySy-19" value="S3" style="shape=cylinder3;whiteSpace=wrap;html=1;boundedLbl=1;backgroundOutline=1;size=15;" vertex="1" parent="1">
          <mxGeometry x="460" y="20" width="60" height="80" as="geometry" />
        </mxCell>
        <mxCell id="DlXwDRaFY0KUQv-3GySy-22" value="" style="endArrow=none;dashed=1;html=1;dashPattern=1 3;strokeWidth=2;rounded=0;" edge="1" parent="1">
          <mxGeometry width="50" height="50" relative="1" as="geometry">
            <mxPoint x="100" y="280" as="sourcePoint" />
            <mxPoint x="100" y="220" as="targetPoint" />
          </mxGeometry>
        </mxCell>
        <mxCell id="DlXwDRaFY0KUQv-3GySy-23" value="S3" style="shape=cylinder3;whiteSpace=wrap;html=1;boundedLbl=1;backgroundOutline=1;size=15;" vertex="1" parent="1">
          <mxGeometry x="425" y="350" width="60" height="80" as="geometry" />
        </mxCell>
        <mxCell id="DlXwDRaFY0KUQv-3GySy-25" value="" style="endArrow=none;dashed=1;html=1;rounded=0;" edge="1" parent="1">
          <mxGeometry width="50" height="50" relative="1" as="geometry">
            <mxPoint x="385" y="60" as="sourcePoint" />
            <mxPoint x="330" y="30" as="targetPoint" />
          </mxGeometry>
        </mxCell>
        <mxCell id="DlXwDRaFY0KUQv-3GySy-26" value="" style="endArrow=none;dashed=1;html=1;rounded=0;" edge="1" parent="1">
          <mxGeometry width="50" height="50" relative="1" as="geometry">
            <mxPoint x="425" y="270" as="sourcePoint" />
            <mxPoint x="325" y="160" as="targetPoint" />
          </mxGeometry>
        </mxCell>
        <mxCell id="DlXwDRaFY0KUQv-3GySy-27" value="" style="endArrow=none;dashed=1;html=1;rounded=0;" edge="1" parent="1">
          <mxGeometry width="50" height="50" relative="1" as="geometry">
            <mxPoint x="290" y="325" as="sourcePoint" />
            <mxPoint x="350" y="315" as="targetPoint" />
          </mxGeometry>
        </mxCell>
        <mxCell id="DlXwDRaFY0KUQv-3GySy-28" value="AWS RDS" style="shape=cylinder3;whiteSpace=wrap;html=1;boundedLbl=1;backgroundOutline=1;size=15;" vertex="1" parent="1">
          <mxGeometry x="130" y="-90" width="80" height="100" as="geometry" />
        </mxCell>
        <mxCell id="DlXwDRaFY0KUQv-3GySy-30" value="" style="endArrow=none;dashed=1;html=1;rounded=0;" edge="1" parent="1">
          <mxGeometry width="50" height="50" relative="1" as="geometry">
            <mxPoint x="60" y="30" as="sourcePoint" />
            <mxPoint x="110" y="-20" as="targetPoint" />
          </mxGeometry>
        </mxCell>
        <mxCell id="DlXwDRaFY0KUQv-3GySy-31" value="" style="endArrow=none;dashed=1;html=1;rounded=0;" edge="1" parent="1">
          <mxGeometry width="50" height="50" relative="1" as="geometry">
            <mxPoint x="240" y="30" as="sourcePoint" />
            <mxPoint x="200" y="20" as="targetPoint" />
          </mxGeometry>
        </mxCell>
      </root>
    </mxGraphModel>
  </diagram>
</mxfile>
